<svg xmlns="http://www.w3.org/2000/svg" viewBox="0 0 600 600" width="100%" height="100%">
  <defs>
    <radialGradient id="bgGlow" cx="50%" cy="50%" r="50%">
      <stop offset="0%" stop-color="#f8fafc"/><stop offset="100%" stop-color="#e2e8f0"/>
    </radialGradient>
    <linearGradient id="silverGrad" x1="0%" y1="0%" x2="100%" y2="100%">
      <stop offset="0%" stop-color="#FFFFFF"/><stop offset="35%" stop-color="#F1F5F9"/><stop offset="70%" stop-color="#94A3B8"/><stop offset="100%" stop-color="#334155"/>
    </linearGradient>
    <filter id="shadow"><feDropShadow dx="0" dy="8" stdDeviation="12" flood-color="#1E293B" flood-opacity="0.2"/></filter>
  </defs>
  <rect width="600" height="600" fill="url(#bgGlow)"/>
  
  <g filter="url(#shadow)">
    <!-- Diya 1 (Left) -->
    <g transform="translate(200, 280)">
      <!-- Pedestal base -->
      <ellipse cx="0" cy="120" rx="55" ry="16" fill="url(#silverGrad)" stroke="#334155" stroke-width="1.5"/>
      <rect x="-10" y="40" width="20" height="80" fill="url(#silverGrad)" stroke="#334155" stroke-width="1"/>
      
      <!-- Oil basin -->
      <ellipse cx="0" cy="40" rx="50" ry="16" fill="url(#silverGrad)" stroke="#334155" stroke-width="1.5"/>
      
      <!-- Kamakshi Goddess Idol on Diya Back -->
      <path d="M -28 35 L -35 -40 Q 0 -65 35 -40 L 28 35 Z" fill="url(#silverGrad)" stroke="#334155" stroke-width="1.5"/>
      <circle cx="0" cy="-15" r="14" fill="#E2E8F0"/>
      <!-- Holy Flame -->
      <path d="M -8 38 Q 0 10 8 38 Z" fill="#F59E0B"/>
      <circle cx="0" cy="22" r="6" fill="#FBBF24"/>
    </g>

    <!-- Diya 2 (Right) -->
    <g transform="translate(400, 280)">
      <ellipse cx="0" cy="120" rx="55" ry="16" fill="url(#silverGrad)" stroke="#334155" stroke-width="1.5"/>
      <rect x="-10" y="40" width="20" height="80" fill="url(#silverGrad)" stroke="#334155" stroke-width="1"/>
      <ellipse cx="0" cy="40" rx="50" ry="16" fill="url(#silverGrad)" stroke="#334155" stroke-width="1.5"/>
      <path d="M -28 35 L -35 -40 Q 0 -65 35 -40 L 28 35 Z" fill="url(#silverGrad)" stroke="#334155" stroke-width="1.5"/>
      <circle cx="0" cy="-15" r="14" fill="#E2E8F0"/>
      <path d="M -8 38 Q 0 10 8 38 Z" fill="#F59E0B"/>
      <circle cx="0" cy="22" r="6" fill="#FBBF24"/>
    </g>
  </g>
  <text x="300" y="560" font-family="'Cormorant Garamond', Georgia, serif" font-size="14" font-weight="600" fill="#64748B" letter-spacing="4" text-anchor="middle">VADDI JEWELLERY • 92.5 SILVER KAMAKSHI DEEPAM PAIR</text>
</svg>